<svg xmlns="http://www.w3.org/2000/svg" version="1.1" xmlns:xlink="http://www.w3.org/1999/xlink" width="512" height="512" x="0" y="0" viewBox="0 0 24 24" style="enable-background:new 0 0 512 512" xml:space="preserve" class=""><g><path d="M22.017 5.831 21 5.145V1.5a.5.5 0 0 0-1 0v2.97L14.517.77a4.48 4.48 0 0 0-5.033 0L1.983 5.831A4.492 4.492 0 0 0 0 9.561V19.5C0 21.981 2.019 24 4.5 24h3.573a1.99 1.99 0 0 0 1.789-1.105l2.085-4.171a.503.503 0 0 0-.021-.486.503.503 0 0 0-.426-.237H7.967a.993.993 0 0 1-.884-.526.98.98 0 0 1 .018-.997l5.464-7.124c.283-.429.974-.449 1.281-.036.148.201.192.454.142.635l-1.943 4.345a.5.5 0 0 0 .456.704h3.659c.279 0 .532.13.694.357a.845.845 0 0 1 .109.775l-1.99 5.888c-.154.457-.078.963.203 1.355.285.397.729.625 1.218.625H19.5c2.481 0 4.5-2.019 4.5-4.5V9.561a4.49 4.49 0 0 0-1.983-3.73ZM23 19.5c0 1.93-1.57 3.5-3.5 3.5h-3.106a.497.497 0 0 1-.473-.66l1.989-5.884a1.833 1.833 0 0 0-.241-1.679A1.833 1.833 0 0 0 16.16 14h-2.889l1.651-3.699a1.771 1.771 0 0 0-.272-1.58A1.767 1.767 0 0 0 13.218 8c-.602 0-1.158.3-1.468.773l-5.465 7.126a1.978 1.978 0 0 0-.081 2.051 1.978 1.978 0 0 0 1.763 1.049h2.725l-1.724 3.447a.996.996 0 0 1-.895.553H4.5c-1.93 0-3.5-1.57-3.5-3.5V9.561c0-1.166.576-2.25 1.542-2.901l7.5-5.061a3.484 3.484 0 0 1 3.916 0l7.5 5.061A3.493 3.493 0 0 1 23 9.561V19.5Z" fill="#ffffff" opacity="1" data-original="#000000" class=""></path></g></svg>