<svg xmlns="http://www.w3.org/2000/svg" version="1.1" xmlns:xlink="http://www.w3.org/1999/xlink" width="512" height="512" x="0" y="0" viewBox="0 0 24 24" style="enable-background:new 0 0 512 512" xml:space="preserve" class=""><g><path d="m23.916 16.86-.862-3.256A3.504 3.504 0 0 0 19.67 11H4.33a3.502 3.502 0 0 0-3.383 2.604L.085 16.86c-.2.756-.042 1.545.436 2.164.477.62 1.199.976 1.981.976h8.999v3h-5a.5.5 0 0 0 0 1h11a.5.5 0 0 0 0-1h-5v-3H21.5a2.48 2.48 0 0 0 1.981-.976 2.481 2.481 0 0 0 .436-2.164Zm-1.829-3 .302 1.14h-5.947l-.375-3h3.604c1.133 0 2.127.765 2.417 1.86ZM8.066 19l.375-3h7.117l.375 3H8.066Zm.5-4 .375-3h6.117l.375 3H8.566Zm-6.653-1.14A2.5 2.5 0 0 1 4.33 12h3.604l-.375 3H1.611l.302-1.14Zm-.601 4.555a1.491 1.491 0 0 1-.261-1.299L1.346 16h6.087l-.375 3H2.501c-.469 0-.902-.213-1.188-.585Zm21.375 0a1.488 1.488 0 0 1-1.188.585h-4.558l-.375-3h6.087l.296 1.116c.12.453.024.927-.262 1.299ZM4 8.5a.5.5 0 0 1 .5-.5H7c0-1.198.441-2.284 1.146-3.146l-2-2a.5.5 0 0 1 .707-.707l2 2A4.94 4.94 0 0 1 11.5 3.051V.5a.5.5 0 0 1 1 0v2.551a4.934 4.934 0 0 1 2.646 1.096l2-2a.5.5 0 0 1 .707.707l-2 2c.705.862 1.146 1.948 1.146 3.146h2.5a.5.5 0 0 1 0 1h-2.5c-.649 0-1-.516-1-1 0-2.206-1.794-4-4-4s-4 1.794-4 4c0 .484-.351 1-1 1h-2.5a.5.5 0 0 1-.5-.5Z" fill="#ffffff" opacity="1" data-original="#000000" class=""></path></g></svg>