<svg xmlns="http://www.w3.org/2000/svg" version="1.1" xmlns:xlink="http://www.w3.org/1999/xlink" width="512" height="512" x="0" y="0" viewBox="0 0 24 24" style="enable-background:new 0 0 512 512" xml:space="preserve" class=""><g><path d="M12.5 3H24V0h-1v2h-3V0h-1v2h-6.5V0h-1v2H5V0H4v2H1V0H0v3h11.5v4H5V5H4v2H1V5H0v3h4.293l7.207 7.207V24h1v-8.793L19.707 8H24V5h-1v2h-3V5h-1v2h-6.5V3ZM5.707 8H11.5v5.793L5.707 8Zm12.586 0L12.5 13.793V8h5.793Z" fill="#ffffff" opacity="1" data-original="#000000" class=""></path></g></svg>